ffmpeg started on 2025-06-06 at 15:29:00
Report written to "D:\Convert\FFMetrics\reports\ssim_report-6.txt"
Log level: 32
Command line:
ffmpeg -hide_banner -nostdin -i "G:\\\xc0\xed\xe8\xec\xe5\\\xce\xed\xe3\xee\xe8\xed\xe3\xe8\\!_36_\xce\xf1\xe5\xed\xfc_2024\\DreamCast\\\xcd\xe8\xed\xe0 \xe2 \xea\xee\xf0\xee\xeb\xe5\xe2\xf1\xf2\xe2\xe5 \xe7\xe2\xb8\xe7\xe4\\[DC] Hoshi Furu Oukoku no Nina - 09_Telegram_HEVC.mkv" -i "G:\\\xc0\xed\xe8\xec\xe5\\\xce\xed\xe3\xee\xe8\xed\xe3\xe8\\!_36_\xce\xf1\xe5\xed\xfc_2024\\DreamCast\\\xcd\xe8\xed\xe0 \xe2 \xea\xee\xf0\xee\xeb\xe5\xe2\xf1\xf2\xe2\xe5 \xe7\xe2\xb8\xe7\xe4\\[DC] Hoshi Furu Oukoku no Nina - 09_Telegram.mp4" -lavfi "[0:v]settb=AVTB,setpts=PTS-STARTPTS,format=pix_fmts=yuv420p10,fps=24000/1001,scale=1920:1080:flags=bicubic[main];[1:v]settb=AVTB,setpts=PTS-STARTPTS,format=pix_fmts=yuv420p,fps=24000/1001,scale=1920:1080:flags=bicubic[ref];[main][ref]ssim=eof_action=endall:stats_file='D\\:/Convert/FFMetrics/logs/ssim_logfile-6.txt'" -f null -
Input #0, matroska,webm, from 'G:\Аниме\Онгоинги\!_36_Осень_2024\DreamCast\Нина в королевстве звёзд\[DC] Hoshi Furu Oukoku no Nina - 09_Telegram_HEVC.mkv':
  Metadata:
    COMPATIBLE_BRANDS: isomiso2avc1mp41
    MAJOR_BRAND     : isom
    MINOR_VERSION   : 512
    ENCODER         : Lavf61.7.100
  Duration: 00:23:46.69, start: -0.021000, bitrate: 865 kb/s
  Stream #0:0: Video: hevc (Main 10), yuv420p10le(tv, bt709, progressive), 1920x1080 [SAR 1:1 DAR 16:9], 23.98 fps, 23.98 tbr, 1k tbn (default)
      Metadata:
        HANDLER_NAME    : VideoHandler
        VENDOR_ID       : [0][0][0][0]
        ENCODER         : Lavc61.19.100 libx265
        BPS             : 668270
        DURATION        : 00:23:46.591708333
        NUMBER_OF_FRAMES: 34204
        NUMBER_OF_BYTES : 119168572
        _STATISTICS_WRITING_APP: mkvpropedit v66.0.0 ('Josie') 64-bit
        _STATISTICS_WRITING_DATE_UTC: 2025-06-01 13:15:41
        _STATISTICS_TAGS: BPS DURATION NUMBER_OF_FRAMES NUMBER_OF_BYTES
  Stream #0:1: Audio: aac (LC), 48000 Hz, stereo, fltp (default)
      Metadata:
        HANDLER_NAME    : SoundHandler
        VENDOR_ID       : [0][0][0][0]
        ENCODER         : Lavc61.19.100 aac
        BPS             : 193305
        DURATION        : 00:23:46.688000000
        NUMBER_OF_FRAMES: 66877
        NUMBER_OF_BYTES : 34473365
        _STATISTICS_WRITING_APP: mkvpropedit v66.0.0 ('Josie') 64-bit
        _STATISTICS_WRITING_DATE_UTC: 2025-06-01 13:15:41
        _STATISTICS_TAGS: BPS DURATION NUMBER_OF_FRAMES NUMBER_OF_BYTES
Input #1, mov,mp4,m4a,3gp,3g2,mj2, from 'G:\Аниме\Онгоинги\!_36_Осень_2024\DreamCast\Нина в королевстве звёзд\[DC] Hoshi Furu Oukoku no Nina - 09_Telegram.mp4':
  Metadata:
    major_brand     : isom
    minor_version   : 512
    compatible_brands: isomiso2avc1mp41
    encoder         : Lavf61.1.100
  Duration: 00:23:46.66, start: 0.000000, bitrate: 3802 kb/s
  Stream #1:0[0x1](und): Video: h264 (High) (avc1 / 0x31637661), yuv420p(tv, bt709, progressive), 1920x1080 [SAR 1:1 DAR 16:9], 3655 kb/s, 23.98 fps, 23.98 tbr, 24k tbn (default)
      Metadata:
        handler_name    : VideoHandler
        vendor_id       : [0][0][0][0]
        encoder         : Lavc61.3.100 h264_qsv
  Stream #1:1[0x2](und): Audio: aac (HE-AACv2) (mp4a / 0x6134706D), 48000 Hz, stereo, fltp, 144 kb/s (default)
      Metadata:
        handler_name    : SoundHandler
        vendor_id       : [0][0][0][0]
Stream mapping:
  Stream #0:0 (hevc) -> settb:default
  Stream #1:0 (h264) -> settb:default
  ssim:default -> Stream #0:0 (wrapped_avframe)
  Stream #0:1 -> #0:1 (aac (native) -> pcm_s16le (native))
Output #0, null, to 'pipe:':
  Metadata:
    COMPATIBLE_BRANDS: isomiso2avc1mp41
    MAJOR_BRAND     : isom
    MINOR_VERSION   : 512
    encoder         : Lavf61.7.100
  Stream #0:0: Video: wrapped_avframe, yuv420p10le(tv, bt709, progressive), 1920x1080 [SAR 1:1 DAR 16:9], q=2-31, 200 kb/s, 23.98 fps, 23.98 tbn
      Metadata:
        encoder         : Lavc61.19.100 wrapped_avframe
  Stream #0:1: Audio: pcm_s16le, 48000 Hz, stereo, s16, 1536 kb/s (default)
      Metadata:
        HANDLER_NAME    : SoundHandler
        VENDOR_ID       : [0][0][0][0]
        _STATISTICS_TAGS: BPS DURATION NUMBER_OF_FRAMES NUMBER_OF_BYTES
        BPS             : 193305
        DURATION        : 00:23:46.688000000
        NUMBER_OF_FRAMES: 66877
        NUMBER_OF_BYTES : 34473365
        _STATISTICS_WRITING_APP: mkvpropedit v66.0.0 ('Josie') 64-bit
        _STATISTICS_WRITING_DATE_UTC: 2025-06-01 13:15:41
        encoder         : Lavc61.19.100 pcm_s16le
frame=  170 fps=0.0 q=-0.0 size=N/A time=00:00:07.09 bitrate=N/A speed=13.7x    frame=  387 fps=378 q=-0.0 size=N/A time=00:00:16.14 bitrate=N/A speed=15.8x    frame=  624 fps=402 q=-0.0 size=N/A time=00:00:26.02 bitrate=N/A speed=16.8x    frame=  844 fps=410 q=-0.0 size=N/A time=00:00:35.20 bitrate=N/A speed=17.1x    frame= 1075 fps=418 q=-0.0 size=N/A time=00:00:44.83 bitrate=N/A speed=17.4x    frame= 1327 fps=429 q=-0.0 size=N/A time=00:00:55.34 bitrate=N/A speed=17.9x    frame= 1544 fps=427 q=-0.0 size=N/A time=00:01:04.39 bitrate=N/A speed=17.8x    frame= 1713 fps=416 q=-0.0 size=N/A time=00:01:11.44 bitrate=N/A speed=17.3x    frame= 1915 fps=412 q=-0.0 size=N/A time=00:01:19.87 bitrate=N/A speed=17.2x    frame= 2109 fps=409 q=-0.0 size=N/A time=00:01:27.96 bitrate=N/A speed=17.1x    frame= 2299 fps=405 q=-0.0 size=N/A time=00:01:35.88 bitrate=N/A speed=16.9x    frame= 2467 fps=399 q=-0.0 size=N/A time=00:01:42.89 bitrate=N/A speed=16.7x    frame= 2652 fps=396 q=-0.0 size=N/A time=00:01:50.61 bitrate=N/A speed=16.5x    frame= 2836 fps=393 q=-0.0 size=N/A time=00:01:58.28 bitrate=N/A speed=16.4x    frame= 3075 fps=398 q=-0.0 size=N/A time=00:02:08.25 bitrate=N/A speed=16.6x    frame= 3280 fps=397 q=-0.0 size=N/A time=00:02:16.80 bitrate=N/A speed=16.6x    frame= 3532 fps=402 q=-0.0 size=N/A time=00:02:27.31 bitrate=N/A speed=16.8x    frame= 3785 fps=407 q=-0.0 size=N/A time=00:02:37.86 bitrate=N/A speed=  17x    frame= 4050 fps=413 q=-0.0 size=N/A time=00:02:48.91 bitrate=N/A speed=17.2x    frame= 4325 fps=418 q=-0.0 size=N/A time=00:03:00.38 bitrate=N/A speed=17.5x    frame= 4571 fps=421 q=-0.0 size=N/A time=00:03:10.64 bitrate=N/A speed=17.6x    frame= 4841 fps=425 q=-0.0 size=N/A time=00:03:21.91 bitrate=N/A speed=17.7x    frame= 5092 fps=428 q=-0.0 size=N/A time=00:03:32.37 bitrate=N/A speed=17.8x    frame= 5331 fps=429 q=-0.0 size=N/A time=00:03:42.34 bitrate=N/A speed=17.9x    frame= 5598 fps=432 q=-0.0 size=N/A time=00:03:53.48 bitrate=N/A speed=  18x    frame= 5807 fps=432 q=-0.0 size=N/A time=00:04:02.20 bitrate=N/A speed=  18x    frame= 6030 fps=432 q=-0.0 size=N/A time=00:04:11.50 bitrate=N/A speed=  18x    frame= 6271 fps=433 q=-0.0 size=N/A time=00:04:21.55 bitrate=N/A speed=  18x    frame= 6500 fps=433 q=-0.0 size=N/A time=00:04:31.10 bitrate=N/A speed=18.1x    frame= 6729 fps=434 q=-0.0 size=N/A time=00:04:40.65 bitrate=N/A speed=18.1x    frame= 6948 fps=434 q=-0.0 size=N/A time=00:04:49.78 bitrate=N/A speed=18.1x    frame= 7208 fps=435 q=-0.0 size=N/A time=00:05:00.63 bitrate=N/A speed=18.2x    frame= 7469 fps=438 q=-0.0 size=N/A time=00:05:11.51 bitrate=N/A speed=18.3x    frame= 7739 fps=440 q=-0.0 size=N/A time=00:05:22.78 bitrate=N/A speed=18.4x    frame= 7999 fps=442 q=-0.0 size=N/A time=00:05:33.62 bitrate=N/A speed=18.4x    frame= 8239 fps=443 q=-0.0 size=N/A time=00:05:43.63 bitrate=N/A speed=18.5x    frame= 8478 fps=443 q=-0.0 size=N/A time=00:05:53.60 bitrate=N/A speed=18.5x    frame= 8721 fps=444 q=-0.0 size=N/A time=00:06:03.73 bitrate=N/A speed=18.5x    frame= 8981 fps=445 q=-0.0 size=N/A time=00:06:14.58 bitrate=N/A speed=18.6x    frame= 9215 fps=446 q=-0.0 size=N/A time=00:06:24.34 bitrate=N/A speed=18.6x    frame= 9414 fps=444 q=-0.0 size=N/A time=00:06:32.64 bitrate=N/A speed=18.5x    frame= 9661 fps=445 q=-0.0 size=N/A time=00:06:42.94 bitrate=N/A speed=18.6x    frame= 9870 fps=444 q=-0.0 size=N/A time=00:06:51.66 bitrate=N/A speed=18.5x    frame=10128 fps=445 q=-0.0 size=N/A time=00:07:02.42 bitrate=N/A speed=18.6x    frame=10375 fps=446 q=-0.0 size=N/A time=00:07:12.72 bitrate=N/A speed=18.6x    frame=10623 fps=447 q=-0.0 size=N/A time=00:07:23.06 bitrate=N/A speed=18.6x    frame=10845 fps=447 q=-0.0 size=N/A time=00:07:32.32 bitrate=N/A speed=18.6x    frame=11038 fps=445 q=-0.0 size=N/A time=00:07:40.37 bitrate=N/A speed=18.6x    frame=11298 fps=446 q=-0.0 size=N/A time=00:07:51.22 bitrate=N/A speed=18.6x    frame=11520 fps=446 q=-0.0 size=N/A time=00:08:00.48 bitrate=N/A speed=18.6x    frame=11767 fps=447 q=-0.0 size=N/A time=00:08:10.78 bitrate=N/A speed=18.6x    frame=11992 fps=446 q=-0.0 size=N/A time=00:08:20.16 bitrate=N/A speed=18.6x    frame=12223 fps=447 q=-0.0 size=N/A time=00:08:29.80 bitrate=N/A speed=18.6x    frame=12470 fps=447 q=-0.0 size=N/A time=00:08:40.10 bitrate=N/A speed=18.6x    frame=12728 fps=448 q=-0.0 size=N/A time=00:08:50.86 bitrate=N/A speed=18.7x    frame=12985 fps=449 q=-0.0 size=N/A time=00:09:01.58 bitrate=N/A speed=18.7x    frame=13211 fps=449 q=-0.0 size=N/A time=00:09:11.00 bitrate=N/A speed=18.7x    frame=13450 fps=449 q=-0.0 size=N/A time=00:09:20.97 bitrate=N/A speed=18.7x    frame=13689 fps=449 q=-0.0 size=N/A time=00:09:30.94 bitrate=N/A speed=18.7x    frame=13939 fps=450 q=-0.0 size=N/A time=00:09:41.37 bitrate=N/A speed=18.8x    frame=14185 fps=450 q=-0.0 size=N/A time=00:09:51.63 bitrate=N/A speed=18.8x    frame=14408 fps=450 q=-0.0 size=N/A time=00:10:00.93 bitrate=N/A speed=18.8x    frame=14666 fps=451 q=-0.0 size=N/A time=00:10:11.69 bitrate=N/A speed=18.8x    frame=14919 fps=451 q=-0.0 size=N/A time=00:10:22.24 bitrate=N/A speed=18.8x    frame=15144 fps=451 q=-0.0 size=N/A time=00:10:31.63 bitrate=N/A speed=18.8x    frame=15393 fps=452 q=-0.0 size=N/A time=00:10:42.01 bitrate=N/A speed=18.8x    frame=15657 fps=453 q=-0.0 size=N/A time=00:10:53.02 bitrate=N/A speed=18.9x    frame=15905 fps=453 q=-0.0 size=N/A time=00:11:03.37 bitrate=N/A speed=18.9x    frame=16175 fps=454 q=-0.0 size=N/A time=00:11:14.63 bitrate=N/A speed=18.9x    frame=16407 fps=454 q=-0.0 size=N/A time=00:11:24.30 bitrate=N/A speed=18.9x    frame=16643 fps=454 q=-0.0 size=N/A time=00:11:34.15 bitrate=N/A speed=18.9x    frame=16903 fps=455 q=-0.0 size=N/A time=00:11:44.99 bitrate=N/A speed=  19x    frame=17170 fps=455 q=-0.0 size=N/A time=00:11:56.13 bitrate=N/A speed=  19x    frame=17407 fps=456 q=-0.0 size=N/A time=00:12:06.01 bitrate=N/A speed=  19x    frame=17676 fps=457 q=-0.0 size=N/A time=00:12:17.23 bitrate=N/A speed=  19x    frame=17938 fps=457 q=-0.0 size=N/A time=00:12:28.16 bitrate=N/A speed=19.1x    frame=18215 fps=458 q=-0.0 size=N/A time=00:12:39.71 bitrate=N/A speed=19.1x    frame=18477 fps=459 q=-0.0 size=N/A time=00:12:50.64 bitrate=N/A speed=19.1x    frame=18675 fps=458 q=-0.0 size=N/A time=00:12:58.90 bitrate=N/A speed=19.1x    frame=18932 fps=458 q=-0.0 size=N/A time=00:13:09.62 bitrate=N/A speed=19.1x    frame=19188 fps=459 q=-0.0 size=N/A time=00:13:20.29 bitrate=N/A speed=19.1x    frame=19437 fps=459 q=-0.0 size=N/A time=00:13:30.68 bitrate=N/A speed=19.2x    frame=19681 fps=459 q=-0.0 size=N/A time=00:13:40.86 bitrate=N/A speed=19.2x    frame=19957 fps=460 q=-0.0 size=N/A time=00:13:52.37 bitrate=N/A speed=19.2x    frame=20208 fps=461 q=-0.0 size=N/A time=00:14:02.84 bitrate=N/A speed=19.2x    frame=20462 fps=461 q=-0.0 size=N/A time=00:14:13.43 bitrate=N/A speed=19.2x    frame=20720 fps=461 q=-0.0 size=N/A time=00:14:24.19 bitrate=N/A speed=19.2x    frame=20982 fps=462 q=-0.0 size=N/A time=00:14:35.12 bitrate=N/A speed=19.3x    frame=21227 fps=462 q=-0.0 size=N/A time=00:14:45.34 bitrate=N/A speed=19.3x    frame=21479 fps=462 q=-0.0 size=N/A time=00:14:55.85 bitrate=N/A speed=19.3x    frame=21747 fps=463 q=-0.0 size=N/A time=00:15:07.03 bitrate=N/A speed=19.3x    frame=22006 fps=463 q=-0.0 size=N/A time=00:15:17.83 bitrate=N/A speed=19.3x    frame=22265 fps=464 q=-0.0 size=N/A time=00:15:28.63 bitrate=N/A speed=19.3x    frame=22525 fps=464 q=-0.0 size=N/A time=00:15:39.48 bitrate=N/A speed=19.4x    frame=22783 fps=465 q=-0.0 size=N/A time=00:15:50.24 bitrate=N/A speed=19.4x    frame=23045 fps=465 q=-0.0 size=N/A time=00:16:01.16 bitrate=N/A speed=19.4x    frame=23316 fps=466 q=-0.0 size=N/A time=00:16:12.47 bitrate=N/A speed=19.4x    frame=23554 fps=466 q=-0.0 size=N/A time=00:16:22.39 bitrate=N/A speed=19.4x    frame=23767 fps=465 q=-0.0 size=N/A time=00:16:31.28 bitrate=N/A speed=19.4x    frame=24000 fps=465 q=-0.0 size=N/A time=00:16:41.00 bitrate=N/A speed=19.4x    frame=24255 fps=465 q=-0.0 size=N/A time=00:16:51.63 bitrate=N/A speed=19.4x    frame=24520 fps=466 q=-0.0 size=N/A time=00:17:02.68 bitrate=N/A speed=19.4x    frame=24784 fps=466 q=-0.0 size=N/A time=00:17:13.69 bitrate=N/A speed=19.4x    frame=25049 fps=467 q=-0.0 size=N/A time=00:17:24.75 bitrate=N/A speed=19.5x    frame=25301 fps=467 q=-0.0 size=N/A time=00:17:35.26 bitrate=N/A speed=19.5x    frame=25561 fps=467 q=-0.0 size=N/A time=00:17:46.10 bitrate=N/A speed=19.5x    frame=25830 fps=468 q=-0.0 size=N/A time=00:17:57.32 bitrate=N/A speed=19.5x    frame=26078 fps=468 q=-0.0 size=N/A time=00:18:07.66 bitrate=N/A speed=19.5x    frame=26296 fps=467 q=-0.0 size=N/A time=00:18:16.76 bitrate=N/A speed=19.5x    frame=26548 fps=468 q=-0.0 size=N/A time=00:18:27.27 bitrate=N/A speed=19.5x    frame=26795 fps=468 q=-0.0 size=N/A time=00:18:37.57 bitrate=N/A speed=19.5x    frame=26997 fps=467 q=-0.0 size=N/A time=00:18:45.99 bitrate=N/A speed=19.5x    frame=27257 fps=467 q=-0.0 size=N/A time=00:18:56.84 bitrate=N/A speed=19.5x    frame=27471 fps=467 q=-0.0 size=N/A time=00:19:05.76 bitrate=N/A speed=19.5x    frame=27731 fps=467 q=-0.0 size=N/A time=00:19:16.61 bitrate=N/A speed=19.5x    frame=27970 fps=467 q=-0.0 size=N/A time=00:19:26.58 bitrate=N/A speed=19.5x    frame=28254 fps=468 q=-0.0 size=N/A time=00:19:38.42 bitrate=N/A speed=19.5x    frame=28513 fps=468 q=-0.0 size=N/A time=00:19:49.22 bitrate=N/A speed=19.5x    frame=28766 fps=468 q=-0.0 size=N/A time=00:19:59.78 bitrate=N/A speed=19.5x    frame=29003 fps=468 q=-0.0 size=N/A time=00:20:09.66 bitrate=N/A speed=19.5x    frame=29259 fps=468 q=-0.0 size=N/A time=00:20:20.34 bitrate=N/A speed=19.5x    frame=29496 fps=468 q=-0.0 size=N/A time=00:20:30.22 bitrate=N/A speed=19.5x    frame=29732 fps=468 q=-0.0 size=N/A time=00:20:40.07 bitrate=N/A speed=19.5x    frame=29986 fps=468 q=-0.0 size=N/A time=00:20:50.66 bitrate=N/A speed=19.5x    frame=30232 fps=469 q=-0.0 size=N/A time=00:21:00.92 bitrate=N/A speed=19.5x    frame=30482 fps=469 q=-0.0 size=N/A time=00:21:11.35 bitrate=N/A speed=19.5x    frame=30724 fps=469 q=-0.0 size=N/A time=00:21:21.44 bitrate=N/A speed=19.6x    frame=30984 fps=469 q=-0.0 size=N/A time=00:21:32.29 bitrate=N/A speed=19.6x    frame=31229 fps=469 q=-0.0 size=N/A time=00:21:42.50 bitrate=N/A speed=19.6x    frame=31461 fps=469 q=-0.0 size=N/A time=00:21:52.18 bitrate=N/A speed=19.6x    frame=31707 fps=469 q=-0.0 size=N/A time=00:22:02.44 bitrate=N/A speed=19.6x    frame=31957 fps=469 q=-0.0 size=N/A time=00:22:12.87 bitrate=N/A speed=19.6x    frame=32191 fps=469 q=-0.0 size=N/A time=00:22:22.63 bitrate=N/A speed=19.6x    frame=32433 fps=469 q=-0.0 size=N/A time=00:22:32.72 bitrate=N/A speed=19.6x    frame=32674 fps=469 q=-0.0 size=N/A time=00:22:42.77 bitrate=N/A speed=19.6x    frame=32912 fps=469 q=-0.0 size=N/A time=00:22:52.70 bitrate=N/A speed=19.6x    frame=33157 fps=469 q=-0.0 size=N/A time=00:23:02.92 bitrate=N/A speed=19.6x    frame=33398 fps=469 q=-0.0 size=N/A time=00:23:12.97 bitrate=N/A speed=19.6x    frame=33636 fps=469 q=-0.0 size=N/A time=00:23:22.90 bitrate=N/A speed=19.6x    frame=33868 fps=469 q=-0.0 size=N/A time=00:23:32.57 bitrate=N/A speed=19.6x    frame=34112 fps=469 q=-0.0 size=N/A time=00:23:42.75 bitrate=N/A speed=19.6x    [Parsed_ssim_10 @ 0000021f9697d040] SSIM Y:0.994367 (22.492909) U:0.993312 (21.746883) V:0.993851 (22.111963) All:0.994105 (22.295452)
[out#0/null @ 0000021f96414680] video:14697KiB audio:267508KiB subtitle:0KiB other streams:0KiB global headers:0KiB muxing overhead: unknown
frame=34204 fps=469 q=-0.0 Lsize=N/A time=00:23:46.59 bitrate=N/A speed=19.6x    
